<?xml version="1.0" standalone="no"?>
<!DOCTYPE svg PUBLIC "-//W3C//DTD SVG 20010904//EN"
 "http://www.w3.org/TR/2001/REC-SVG-20010904/DTD/svg10.dtd">
<svg version="1.0" xmlns="http://www.w3.org/2000/svg"
 width="260.000000pt" height="260.000000pt" viewBox="0 0 260.000000 260.000000"
 preserveAspectRatio="xMidYMid meet">
<metadata>
Created by potrace 1.11, written by Peter Selinger 2001-2013
</metadata>
<g transform="translate(0.000000,260.000000) scale(0.100000,-0.100000)"
fill="#000000" stroke="none">
<path d="M2040 2444 c-98 -26 -175 -85 -235 -178 -77 -122 -71 -294 16 -421
107 -158 315 -212 488 -129 265 129 297 489 59 668 -85 63 -219 88 -328 60z"/>
<path d="M1233 2325 c0 -14 3 -25 8 -25 4 0 6 10 4 21 -6 32 -12 34 -12 4z"/>
<path d="M1355 2340 c-3 -5 -1 -10 4 -10 6 0 11 5 11 10 0 6 -2 10 -4 10 -3 0
-8 -4 -11 -10z"/>
<path d="M1187 2312 c3 -7 9 -10 12 -5 3 4 10 11 15 15 4 4 -1 6 -12 5 -12 -1
-18 -6 -15 -15z"/>
<path d="M1380 2325 c0 -8 29 -12 39 -5 9 5 4 8 -13 8 -14 0 -26 -2 -26 -3z"/>
<path d="M1586 2318 c3 -4 9 -8 15 -8 5 0 9 4 9 8 0 5 -7 9 -15 9 -8 0 -12 -4
-9 -9z"/>
<path d="M1415 2300 c-3 -6 1 -7 9 -4 18 7 21 14 7 14 -6 0 -13 -4 -16 -10z"/>
<path d="M1565 2299 c-6 -8 -4 -10 5 -4 9 5 10 1 6 -16 -6 -21 -6 -22 5 -6 7
13 8 22 1 29 -6 6 -12 6 -17 -3z"/>
<path d="M1028 2293 c7 -3 16 -2 19 1 4 3 -2 6 -13 5 -11 0 -14 -3 -6 -6z"/>
<path d="M1610 2291 c0 -6 4 -13 10 -16 6 -3 7 1 4 9 -7 18 -14 21 -14 7z"/>
<path d="M995 2280 c-3 -6 0 -13 9 -16 8 -3 13 -14 11 -25 -2 -10 1 -22 7 -25
6 -4 8 -3 5 3 -4 6 0 13 8 17 8 3 15 11 14 18 0 10 -2 10 -6 1 -2 -7 -9 -13
-14 -13 -6 0 -7 5 -4 10 3 6 -1 13 -9 16 -9 3 -13 10 -10 15 3 5 3 9 0 9 -3 0
-8 -5 -11 -10z"/>
<path d="M1210 2286 c0 -2 7 -7 16 -10 8 -3 12 -2 9 4 -6 10 -25 14 -25 6z"/>
<path d="M1388 2283 c6 -2 10 -9 7 -14 -4 -5 1 -6 10 -2 13 5 14 7 3 14 -7 5
-17 8 -23 8 -5 0 -4 -3 3 -6z"/>
<path d="M1356 2263 c-6 -14 -5 -15 5 -6 7 7 10 15 7 18 -3 3 -9 -2 -12 -12z"/>
<path d="M960 2266 c0 -2 7 -7 16 -10 8 -3 12 -2 9 4 -6 10 -25 14 -25 6z"/>
<path d="M1179 2267 c-6 -20 -5 -36 2 -31 5 3 7 10 4 15 -4 5 -2 9 4 9 5 0 12
-6 14 -12 4 -10 6 -10 6 0 1 8 6 10 14 6 6 -4 9 -3 4 1 -7 8 -46 18 -48 12z"/>
<path d="M1245 2260 c-8 -13 -16 -54 -9 -47 3 3 6 9 6 14 0 4 4 16 9 26 10 18
5 24 -6 7z"/>
<path d="M1592 2258 c2 -6 10 -13 16 -14 7 -1 8 0 2 3 -5 2 -8 9 -4 14 3 5 0
9 -6 9 -7 0 -10 -5 -8 -12z"/>
<path d="M1536 2245 c-3 -8 -1 -15 4 -15 6 0 10 7 10 15 0 8 -2 15 -4 15 -2 0
-6 -7 -10 -15z"/>
<path d="M1771 2244 c0 -11 3 -14 6 -6 3 7 2 16 -1 19 -3 4 -6 -2 -5 -13z"/>
<path d="M1366 2242 c-3 -5 1 -9 9 -9 8 0 15 4 15 9 0 4 -4 8 -9 8 -6 0 -12
-4 -15 -8z"/>
<path d="M1406 2241 c-3 -5 1 -11 9 -14 9 -4 12 -1 8 9 -6 16 -10 17 -17 5z"/>
<path d="M1574 2234 c3 -21 33 -39 33 -20 0 8 -7 12 -15 8 -10 -3 -13 -1 -8 6
3 6 2 13 -3 16 -5 4 -8 -1 -7 -10z"/>
<path d="M1540 2216 c0 -2 7 -7 16 -10 8 -3 12 -2 9 4 -6 10 -25 14 -25 6z"/>
<path d="M834 2199 c-4 -7 -3 -9 4 -5 5 3 13 0 15 -6 4 -9 6 -10 6 -1 1 17
-16 25 -25 12z"/>
<path d="M1040 2199 c0 -5 5 -7 10 -4 6 3 10 8 10 11 0 2 -4 4 -10 4 -5 0 -10
-5 -10 -11z"/>
<path d="M1715 2200 c-3 -5 -3 -10 2 -10 4 0 1 -5 -7 -10 -13 -8 -12 -10 4
-10 12 0 16 5 13 14 -3 8 -1 17 6 20 9 3 9 5 0 5 -6 1 -15 -3 -18 -9z"/>
<path d="M1016 2183 c-6 -14 -5 -15 5 -6 7 7 10 15 7 18 -3 3 -9 -2 -12 -12z"/>
<path d="M870 2182 c0 -5 7 -9 15 -9 8 0 12 4 9 9 -3 4 -9 8 -15 8 -5 0 -9 -4
-9 -8z"/>
<path d="M1055 2179 c-4 -6 -5 -12 -2 -15 2 -3 7 2 10 11 7 17 1 20 -8 4z"/>
<path d="M817 2160 c-4 -14 1 -23 16 -31 19 -9 20 -8 7 3 -9 7 -14 21 -12 31
5 24 -4 22 -11 -3z"/>
<path d="M1742 2160 c0 -14 2 -19 5 -12 2 6 2 18 0 25 -3 6 -5 1 -5 -13z"/>
<path d="M850 2160 c0 -5 5 -10 11 -10 5 0 7 5 4 10 -3 6 -8 10 -11 10 -2 0
-4 -4 -4 -10z"/>
<path d="M1713 2145 c0 -8 4 -12 9 -9 5 3 6 10 3 15 -9 13 -12 11 -12 -6z"/>
<path d="M447 2145 c-1 -2 -24 -5 -51 -8 -55 -7 -158 -54 -198 -90 -173 -160
-182 -425 -19 -586 75 -73 152 -108 250 -114 21 -1 37 -5 34 -9 -2 -5 1 -8 7
-8 6 0 9 -4 6 -8 -2 -4 5 -9 16 -9 20 -2 20 -1 2 12 -11 7 -16 16 -13 19 3 3
15 -3 27 -14 23 -21 32 -14 10 8 -9 9 -7 12 11 12 12 0 20 -4 17 -8 -2 -4 5
-8 17 -9 12 0 16 1 10 4 -7 3 -13 9 -13 15 0 6 7 8 15 4 8 -3 15 -2 15 2 0 4
25 20 55 35 154 81 236 258 200 431 -15 71 -58 169 -70 158 -4 -4 -5 6 -3 21
4 19 2 25 -5 18 -6 -6 -18 -1 -37 17 -15 15 -53 41 -86 57 -32 17 -61 33 -62
38 -2 4 -7 5 -11 3 -4 -3 -33 -1 -64 3 -31 4 -58 7 -60 6z"/>
<path d="M880 2140 c-23 -7 -23 -8 -3 -9 12 -1 25 4 28 9 3 6 5 10 3 9 -2 -1
-14 -5 -28 -9z"/>
<path d="M914 2122 c3 -5 0 -13 -6 -15 -9 -4 -10 -6 -1 -6 17 -1 25 16 12 25
-7 4 -9 3 -5 -4z"/>
<path d="M870 2110 c-9 -6 -10 -10 -3 -10 6 0 15 5 18 10 8 12 4 12 -15 0z"/>
<path d="M890 2079 c0 -5 5 -7 10 -4 6 3 10 8 10 11 0 2 -4 4 -10 4 -5 0 -10
-5 -10 -11z"/>
<path d="M2148 1623 c7 -3 16 -2 19 1 4 3 -2 6 -13 5 -11 0 -14 -3 -6 -6z"/>
<path d="M2188 1623 c6 -2 18 -2 25 0 6 3 1 5 -13 5 -14 0 -19 -2 -12 -5z"/>
<path d="M2119 1593 c-13 -17 -13 -17 6 -3 11 8 22 16 24 17 2 2 0 3 -6 3 -6
0 -17 -8 -24 -17z"/>
<path d="M2176 1595 c4 -8 8 -15 10 -15 2 0 4 7 4 15 0 8 -4 15 -10 15 -5 0
-7 -7 -4 -15z"/>
<path d="M2212 1593 c2 -9 11 -17 21 -19 9 -1 15 2 11 7 -3 5 -10 6 -16 3 -7
-5 -9 -1 -5 9 3 10 2 17 -4 17 -6 0 -9 -7 -7 -17z"/>
<path d="M2133 1573 c-3 -7 -10 -10 -16 -6 -6 4 -7 1 -2 -7 6 -10 10 -10 19 2
6 8 17 13 24 11 6 -3 12 -1 12 5 0 14 -31 10 -37 -5z"/>
<path d="M2195 1560 c3 -5 8 -10 11 -10 2 0 4 5 4 10 0 6 -5 10 -11 10 -5 0
-7 -4 -4 -10z"/>
<path d="M2155 1450 c-4 -6 -11 -8 -16 -5 -5 4 -9 1 -9 -4 0 -16 16 -13 30 4
7 8 10 15 7 15 -3 0 -9 -5 -12 -10z"/>
<path d="M2212 1443 c2 -10 -3 -24 -12 -31 -13 -11 -12 -12 7 -3 15 8 20 17
16 31 -7 25 -16 27 -11 3z"/>
<path d="M2175 1430 c3 -5 -1 -10 -9 -10 -9 0 -16 -5 -16 -10 0 -7 7 -7 20 0
17 9 20 30 4 30 -3 0 -2 -4 1 -10z"/>
<path d="M2198 1383 c7 -3 16 -2 19 1 4 3 -2 6 -13 5 -11 0 -14 -3 -6 -6z"/>
<path d="M470 1276 c0 -2 9 -6 20 -9 11 -3 18 -1 14 4 -5 9 -34 13 -34 5z"/>
<path d="M2135 1260 c-3 -5 -1 -10 4 -10 6 0 11 5 11 10 0 6 -2 10 -4 10 -3 0
-8 -4 -11 -10z"/>
<path d="M2097 1235 c-4 -8 -1 -17 5 -21 7 -4 8 -3 4 4 -4 7 -2 12 3 12 6 0
11 5 11 10 0 15 -17 12 -23 -5z"/>
<path d="M2193 1243 c4 -3 0 -11 -7 -17 -10 -8 -11 -17 -5 -31 9 -19 9 -19 5
2 -2 12 2 24 10 27 17 7 19 26 2 26 -6 0 -8 -3 -5 -7z"/>
<path d="M2150 1229 c0 -5 -5 -7 -12 -3 -7 4 -8 3 -4 -5 6 -9 11 -9 22 0 17
14 18 19 4 19 -5 0 -10 -5 -10 -11z"/>
<path d="M2116 1202 c-3 -5 1 -9 9 -9 8 0 12 4 9 9 -3 4 -7 8 -9 8 -2 0 -6 -4
-9 -8z"/>
<path d="M583 1177 c-3 -6 -1 -7 5 -3 6 3 12 -2 14 -11 3 -16 5 -15 10 3 5 22
-17 30 -29 11z"/>
<path d="M539 1163 c-1 -5 -1 -12 0 -17 1 -5 -4 -6 -12 -3 -7 3 -14 -1 -14 -9
0 -19 30 -1 33 20 1 9 0 16 -2 16 -2 0 -5 -3 -5 -7z"/>
<path d="M580 1151 c0 -7 -5 -9 -12 -5 -7 5 -8 3 -3 -5 5 -9 10 -10 18 -2 6 6
8 14 4 18 -4 3 -7 1 -7 -6z"/>
<path d="M615 1142 c-9 -9 -5 -32 5 -32 5 0 7 7 4 15 -5 11 -2 13 10 9 9 -3
16 -2 16 3 0 10 -26 13 -35 5z"/>
<path d="M553 1115 c0 -8 6 -16 14 -19 11 -4 11 -1 3 14 -13 24 -17 25 -17 5z"/>
<path d="M2043 1095 c-3 -9 -3 -18 -1 -21 3 -3 8 4 11 16 6 23 -1 27 -10 5z"/>
<path d="M2070 1090 c0 -5 5 -10 10 -10 6 0 10 5 10 10 0 6 -4 10 -10 10 -5 0
-10 -4 -10 -10z"/>
<path d="M535 1080 c3 -5 8 -10 11 -10 2 0 4 5 4 10 0 6 -5 10 -11 10 -5 0 -7
-4 -4 -10z"/>
<path d="M2021 1074 c0 -11 3 -14 6 -6 3 7 2 16 -1 19 -3 4 -6 -2 -5 -13z"/>
<path d="M2094 1062 c5 -8 -1 -12 -16 -13 -18 -1 -19 -2 -4 -6 23 -6 43 12 25
22 -8 5 -10 4 -5 -3z"/>
<path d="M675 1020 c-3 -5 -1 -10 4 -10 6 0 11 5 11 10 0 6 -2 10 -4 10 -3 0
-8 -4 -11 -10z"/>
<path d="M2090 1026 c0 -3 9 -10 20 -16 11 -6 20 -8 20 -6 0 3 -9 10 -20 16
-11 6 -20 8 -20 6z"/>
<path d="M641 996 c-15 -18 5 -34 22 -17 9 9 7 10 -8 5 -18 -7 -18 -6 -6 9 7
9 11 17 8 17 -2 0 -10 -6 -16 -14z"/>
<path d="M690 1000 c-11 -7 -11 -10 -2 -10 7 0 10 -5 6 -12 -4 -7 -3 -8 5 -4
6 4 9 11 6 16 -3 4 1 11 7 13 7 3 9 6 3 6 -5 0 -17 -4 -25 -9z"/>
<path d="M610 960 c0 -5 5 -10 10 -10 6 0 10 5 10 10 0 6 -4 10 -10 10 -5 0
-10 -4 -10 -10z"/>
<path d="M670 962 c0 -6 9 -12 20 -15 11 -3 20 -3 20 -1 0 2 -9 8 -20 14 -11
6 -20 7 -20 2z"/>
<path d="M640 946 c0 -2 7 -7 16 -10 8 -3 12 -2 9 4 -6 10 -25 14 -25 6z"/>
<path d="M1950 940 c0 -5 5 -10 10 -10 6 0 10 5 10 10 0 6 -4 10 -10 10 -5 0
-10 -4 -10 -10z"/>
<path d="M1921 921 c-8 -5 -9 -11 -3 -15 5 -3 12 1 16 9 6 17 6 18 -13 6z"/>
<path d="M1964 914 c-18 -15 -18 -15 3 -5 30 15 33 14 27 -6 -5 -15 -4 -15 4
-3 21 29 -3 39 -34 14z"/>
<path d="M2006 885 c-9 -13 -16 -28 -16 -32 0 -4 8 4 18 19 15 23 21 25 32 15
12 -10 12 -9 1 6 -17 21 -16 22 -35 -8z"/>
<path d="M1930 885 c0 -8 29 -12 39 -5 9 5 4 8 -13 8 -14 0 -26 -2 -26 -3z"/>
<path d="M775 871 c-6 -10 33 -36 42 -28 2 3 -5 8 -16 12 -12 3 -19 11 -16 16
4 5 4 9 1 9 -3 0 -7 -4 -11 -9z"/>
<path d="M835 869 c-4 -6 -5 -12 -2 -15 2 -3 7 2 10 11 7 17 1 20 -8 4z"/>
<path d="M2010 850 c-6 -11 -8 -20 -6 -20 3 0 10 9 16 20 6 11 8 20 6 20 -3 0
-10 -9 -16 -20z"/>
<path d="M842 844 c-7 -8 -8 -14 -3 -14 10 0 25 19 20 25 -2 1 -10 -3 -17 -11z"/>
<path d="M767 839 c7 -7 15 -10 18 -7 3 3 -2 9 -12 12 -14 6 -15 5 -6 -5z"/>
<path d="M1390 828 c-65 -11 -158 -61 -207 -109 -24 -23 -43 -45 -43 -50 0 -5
-4 -9 -9 -9 -5 0 -7 10 -4 23 3 12 3 19 -1 16 -4 -4 -8 -21 -11 -39 -2 -18 -9
-36 -15 -40 -7 -4 -11 -10 -10 -14 1 -3 -6 -31 -15 -62 -30 -103 -22 -201 24
-300 116 -248 440 -311 645 -123 188 172 175 476 -28 629 -92 69 -214 99 -326
78z"/>
<path d="M815 820 c6 -10 4 -12 -8 -7 -10 3 -17 2 -17 -3 0 -13 27 -13 35 -1
3 5 0 13 -6 17 -8 5 -9 3 -4 -6z"/>
<path d="M750 805 c0 -8 4 -15 10 -15 5 0 7 7 4 15 -4 8 -8 15 -10 15 -2 0 -4
-7 -4 -15z"/>
<path d="M1842 800 c-18 -29 -15 -38 4 -12 9 13 14 25 12 27 -2 2 -9 -5 -16
-15z"/>
<path d="M1786 802 c-3 -4 4 -9 15 -9 23 -2 25 3 4 10 -8 4 -16 3 -19 -1z"/>
<path d="M775 781 c-6 -11 13 -26 22 -17 4 3 1 6 -6 6 -7 0 -9 5 -6 10 3 6 4
10 1 10 -3 0 -7 -4 -11 -9z"/>
<path d="M1854 779 c-3 -6 -1 -16 5 -22 9 -9 10 -7 5 7 -6 15 -4 17 6 11 9 -5
11 -4 6 3 -9 15 -13 15 -22 1z"/>
<path d="M940 773 c0 -6 8 -17 18 -24 16 -13 16 -13 2 6 -8 11 -16 22 -17 24
-2 2 -3 0 -3 -6z"/>
<path d="M1791 764 c0 -11 3 -14 6 -6 3 7 2 16 -1 19 -3 4 -6 -2 -5 -13z"/>
<path d="M980 761 c0 -5 7 -11 14 -14 10 -4 13 -1 9 9 -6 15 -23 19 -23 5z"/>
<path d="M1811 754 c0 -11 3 -14 6 -6 3 7 2 16 -1 19 -3 4 -6 -2 -5 -13z"/>
<path d="M925 740 c-5 -8 -4 -11 2 -7 6 4 14 0 17 -9 3 -8 10 -13 15 -10 5 4
12 1 14 -4 4 -7 5 -6 4 1 -2 6 -6 9 -9 7 -4 -2 -13 6 -21 16 -11 15 -16 16
-22 6z"/>
<path d="M1834 741 c4 -5 1 -12 -4 -14 -6 -3 -5 -4 2 -3 15 3 23 26 8 26 -6 0
-9 -4 -6 -9z"/>
<path d="M1856 725 c-3 -8 -1 -15 4 -15 6 0 10 7 10 15 0 8 -2 15 -4 15 -2 0
-6 -7 -10 -15z"/>
<path d="M885 699 c-4 -6 -5 -12 -2 -15 2 -3 7 2 10 11 7 17 1 20 -8 4z"/>
<path d="M924 699 c-4 -7 -3 -9 4 -5 5 3 13 0 15 -6 4 -9 6 -10 6 -1 1 17 -16
25 -25 12z"/>
<path d="M956 673 c-6 -14 -5 -15 5 -6 7 7 10 15 7 18 -3 3 -9 -2 -12 -12z"/>
<path d="M915 671 c-3 -5 -2 -12 3 -15 5 -3 9 1 9 9 0 17 -3 19 -12 6z"/>
<path d="M1085 640 c-3 -5 -1 -10 4 -10 6 0 11 5 11 10 0 6 -2 10 -4 10 -3 0
-8 -4 -11 -10z"/>
<path d="M1071 604 c0 -11 3 -14 6 -6 3 7 2 16 -1 19 -3 4 -6 -2 -5 -13z"/>
</g>
</svg>
